# xmcd
#
# Track frame offsets:
#	150
#	11170
#	26846
#	41582
#	55078
#	71491
#	85262
#
# Disc length: 1302 seconds
# Revision: 0
# Processed by: cddbd v1.5.2PL0 Copyright (c) Steve Scherf et al.
# Submitted via: dBpowerAMP V12.0
#
DISCID=56051407
DTITLE=Next Best Thing - Next Best Thing
DYEAR=2008
DGENRE=Bluegrass
TTITLE0=My Heart Cracked (But it Did Not Break)
TTITLE1=I Was There
TTITLE2=Sledd Ridin'
TTITLE3=If It's Only Pretend
TTITLE4=We Tried
TTITLE5=Pardon Me (with Rhonda Vincent)
TTITLE6=Until Then (with Rhonda Vincent)
EXTD=
EXTT0=
EXTT1=
EXTT2=
EXTT3=
EXTT4=
EXTT5=
EXTT6=
PLAYORDER=
